<?xml version="1.0" encoding="utf-8"?>
<Project name="Film_Abgabe" themeId="0" version="65540" templateID="SimpleProjectTemplate">
  <MediaItems>
    <MediaItem id="17" filePath="C:\Users\Jasmin\Downloads\1\Celebration by Kool and the Gang with lyrics.mp3" arWidth="0" arHeight="0" duration="213.681625" songTitle="" songArtist="" songAlbum="" songCopyrightUrl="" songArtistUrl="" songAudioFileUrl="" stabilizationMode="0" mediaItemType="3" />
    <MediaItem id="1" filePath="C:\Users\Jasmin\Desktop\Animation1_Party_Island0001-0091.avi" arWidth="1920" arHeight="1080" duration="3.7916059999999998" songTitle="" songArtist="" songAlbum="" songCopyrightUrl="" songArtistUrl="" songAudioFileUrl="" stabilizationMode="0" mediaItemType="1" />
    <MediaItem id="18" filePath="C:\Users\Jasmin\Desktop\Neue_Insel\Pups.wma" arWidth="0" arHeight="0" duration="2.0150000000000001" songTitle="" songArtist="" songAlbum="" songCopyrightUrl="" songArtistUrl="" songAudioFileUrl="" stabilizationMode="0" mediaItemType="3" />
    <MediaItem id="2" filePath="C:\Users\Jasmin\Desktop\LETZTESZENE0001-0061.avi" arWidth="1920" arHeight="1080" duration="2.5416259999999999" songTitle="" songArtist="" songAlbum="" songCopyrightUrl="" songArtistUrl="" songAudioFileUrl="" stabilizationMode="0" mediaItemType="1" />
    <MediaItem id="19" filePath="C:\Users\Jasmin\Downloads\Musik_Film\Evil Laugh Sound Effect.mp3" arWidth="0" arHeight="0" duration="10.7885714" songTitle="" songArtist="" songAlbum="" songCopyrightUrl="" songArtistUrl="" songAudioFileUrl="" stabilizationMode="0" mediaItemType="3" />
    <MediaItem id="3" filePath="C:\Users\Jasmin\Desktop\KOKOSNUSSFAELLT_NEUUUU!!!!!!0001-0020.avi" arWidth="1920" arHeight="1080" duration="0.83331999999999995" songTitle="" songArtist="" songAlbum="" songCopyrightUrl="" songArtistUrl="" songAudioFileUrl="" stabilizationMode="0" mediaItemType="1" />
    <MediaItem id="20" filePath="C:\Users\Jasmin\Desktop\Neue_Insel\Schlucken.wma" arWidth="0" arHeight="0" duration="2.1429999999999998" songTitle="" songArtist="" songAlbum="" songCopyrightUrl="" songArtistUrl="" songAudioFileUrl="" stabilizationMode="0" mediaItemType="3" />
    <MediaItem id="4" filePath="C:\Users\Jasmin\Desktop\OHYEAH0001-0010.avi" arWidth="1920" arHeight="1080" duration="0.41665999999999997" songTitle="" songArtist="" songAlbum="" songCopyrightUrl="" songArtistUrl="" songAudioFileUrl="" stabilizationMode="0" mediaItemType="1" />
    <MediaItem id="21" filePath="C:\Users\Jasmin\Desktop\Neue_Insel\Fallen.wma" arWidth="0" arHeight="0" duration="1.5029999999999999" songTitle="" songArtist="" songAlbum="" songCopyrightUrl="" songArtistUrl="" songAudioFileUrl="" stabilizationMode="0" mediaItemType="3" />
    <MediaItem id="5" filePath="C:\Users\Jasmin\Desktop\RAKETEABSCHIESSEN0001-0020.avi" arWidth="1920" arHeight="1080" duration="0.83331999999999995" songTitle="" songArtist="" songAlbum="" songCopyrightUrl="" songArtistUrl="" songAudioFileUrl="" stabilizationMode="0" mediaItemType="1" />
    <MediaItem id="22" filePath="C:\Users\Jasmin\Desktop\Neue_Insel\nuss.wma" arWidth="0" arHeight="0" duration="1.748" songTitle="" songArtist="" songAlbum="" songCopyrightUrl="" songArtistUrl="" songAudioFileUrl="" stabilizationMode="0" mediaItemType="3" />
    <MediaItem id="6" filePath="C:\Users\Jasmin\Desktop\FROSCH_OH_OH0001-0005.avi" arWidth="1920" arHeight="1080" duration="0.20832999999999999" songTitle="" songArtist="" songAlbum="" songCopyrightUrl="" songArtistUrl="" songAudioFileUrl="" stabilizationMode="0" mediaItemType="1" />
    <MediaItem id="7" filePath="C:\Users\Jasmin\Desktop\ROBOTER_FAELLT_UM0001-0015.avi" arWidth="1920" arHeight="1080" duration="0.62499000000000005" songTitle="" songArtist="" songAlbum="" songCopyrightUrl="" songArtistUrl="" songAudioFileUrl="" stabilizationMode="0" mediaItemType="1" />
    <MediaItem id="8" filePath="C:\Users\Jasmin\Desktop\NAHAUFNAHME_VON_ALLEN0001-0061.avi" arWidth="1920" arHeight="1080" duration="2.5416259999999999" songTitle="" songArtist="" songAlbum="" songCopyrightUrl="" songArtistUrl="" songAudioFileUrl="" stabilizationMode="0" mediaItemType="1" />
    <MediaItem id="9" filePath="C:\Users\Jasmin\Desktop\HUND_KACKT0001-0020.avi" arWidth="1920" arHeight="1080" duration="0.83331999999999995" songTitle="" songArtist="" songAlbum="" songCopyrightUrl="" songArtistUrl="" songAudioFileUrl="" stabilizationMode="0" mediaItemType="1" />
    <MediaItem id="10" filePath="C:\Users\Jasmin\Desktop\BOOT_GEHT_UNTER0001-0021.avi" arWidth="1920" arHeight="1080" duration="0.87498600000000004" songTitle="" songArtist="" songAlbum="" songCopyrightUrl="" songArtistUrl="" songAudioFileUrl="" stabilizationMode="0" mediaItemType="1" />
    <MediaItem id="11" filePath="C:\Users\Jasmin\Desktop\RAKETE_TRIFFT_BOOT0001-0021.avi" arWidth="1920" arHeight="1080" duration="0.87498600000000004" songTitle="" songArtist="" songAlbum="" songCopyrightUrl="" songArtistUrl="" songAudioFileUrl="" stabilizationMode="0" mediaItemType="1" />
    <MediaItem id="12" filePath="C:\Users\Jasmin\Desktop\RAKETE_ABGEFEUERT0001-0019.avi" arWidth="1920" arHeight="1080" duration="0.79165399999999997" songTitle="" songArtist="" songAlbum="" songCopyrightUrl="" songArtistUrl="" songAudioFileUrl="" stabilizationMode="0" mediaItemType="1" />
    <MediaItem id="13" filePath="C:\Users\Jasmin\Downloads\Musik_Film\Beach Party.mp3" arWidth="0" arHeight="0" duration="49.815525000000001" songTitle="" songArtist="Kevin MacLeod" songAlbum="Reggae or Ska" songCopyrightUrl="" songArtistUrl="" songAudioFileUrl="" stabilizationMode="0" mediaItemType="3" />
    <MediaItem id="14" filePath="C:\Users\Jasmin\Downloads\Musik_Film\Firework Display Sound Effect.mp3" arWidth="0" arHeight="0" duration="94.589387700000003" songTitle="" songArtist="" songAlbum="" songCopyrightUrl="" songArtistUrl="" songAudioFileUrl="" stabilizationMode="0" mediaItemType="3" />
    <MediaItem id="15" filePath="C:\Users\Jasmin\Downloads\Musik_Film\10 Minutes Grillen Zirpen.mp3" arWidth="0" arHeight="0" duration="600.16324999999995" songTitle="" songArtist="" songAlbum="" songCopyrightUrl="" songArtistUrl="" songAudioFileUrl="" stabilizationMode="0" mediaItemType="3" />
    <MediaItem id="16" filePath="C:\Users\Jasmin\Downloads\1\CÃ©line Dion - My Heart Will Go On (Love Theme from 'Titanic').mp3" arWidth="0" arHeight="0" duration="275.6701875" songTitle="" songArtist="" songAlbum="" songCopyrightUrl="" songArtistUrl="" songAudioFileUrl="" stabilizationMode="0" mediaItemType="3" />
  </MediaItems>
  <Extents>
    <TitleClip extentID="17" gapBefore="13.566674666666671" duration="6.9747753333333335">
      <Effects>
        <TextEffect effectTemplateID="TextEffectScrollTemplate" TextScriptId="7">
          <BoundProperties>
            <BoundPropertyBool Name="automatic" Value="false" />
            <BoundPropertyFloatSet Name="color">
              <BoundPropertyFloatElement Value="1" />
              <BoundPropertyFloatElement Value="1" />
              <BoundPropertyFloatElement Value="1" />
            </BoundPropertyFloatSet>
            <BoundPropertyStringSet Name="family">
              <BoundPropertyStringElement Value="Segoe UI" />
            </BoundPropertyStringSet>
            <BoundPropertyBool Name="horizontal" Value="true" />
            <BoundPropertyStringSet Name="justify">
              <BoundPropertyStringElement Value="MIDDLE" />
            </BoundPropertyStringSet>
            <BoundPropertyBool Name="leftToRight" Value="true" />
            <BoundPropertyFloatSet Name="length" />
            <BoundPropertyFloat Name="maxExtent" Value="0" />
            <BoundPropertyFloatSet Name="outlineColor">
              <BoundPropertyFloatElement Value="0" />
              <BoundPropertyFloatElement Value="0" />
              <BoundPropertyFloatElement Value="0" />
            </BoundPropertyFloatSet>
            <BoundPropertyInt Name="outlineSizeIndex" Value="2" />
            <BoundPropertyFloatSet Name="position">
              <BoundPropertyFloatElement Value="-0.023087978363037109" />
              <BoundPropertyFloatElement Value="2.4307692050933838" />
              <BoundPropertyFloatElement Value="0.02500000037252903" />
            </BoundPropertyFloatSet>
            <BoundPropertyFloat Name="size" Value="0.43333333730697632" />
            <BoundPropertyStringSet Name="string">
              <BoundPropertyStringElement Value="&quot;Party Island&quot;" />
              <BoundPropertyStringElement Value="3D Modellierung &amp; Animation" />
              <BoundPropertyStringElement Value="" />
              <BoundPropertyStringElement Value="" />
              <BoundPropertyStringElement Value="" />
              <BoundPropertyStringElement Value="Isabell Schwarz" />
              <BoundPropertyStringElement Value="Jasmin Becker" />
              <BoundPropertyStringElement Value="Lisa Rossel" />
              <BoundPropertyStringElement Value="Jennifer Pogodalla" />
            </BoundPropertyStringSet>
            <BoundPropertyString Name="style" Value="Plain" />
            <BoundPropertyFloat Name="transparency" Value="0" />
          </BoundProperties>
        </TextEffect>
      </Effects>
      <Transitions />
      <BoundProperties>
        <BoundPropertyFloatSet Name="diffuseColor">
          <BoundPropertyFloatElement Value="0.75" />
          <BoundPropertyFloatElement Value="1" />
          <BoundPropertyFloatElement Value="0" />
        </BoundPropertyFloatSet>
        <BoundPropertyFloat Name="transparency" Value="1" />
      </BoundProperties>
    </TitleClip>
    <AudioClip extentID="34" gapBefore="-0.091360166666660803" mediaItemID="17" inTime="33.48203432291664" outTime="213.681625" speed="1">
      <Effects>
        <AudioEffect effectTemplateID="AudioFadeEffectTemplate">
          <BoundProperties>
            <BoundPropertyFloat Name="AudioFadeInDuration" Value="0" />
            <BoundPropertyFloat Name="AudioFadeOutDuration" Value="10" />
          </BoundProperties>
        </AudioEffect>
      </Effects>
      <Transitions />
      <BoundProperties>
        <BoundPropertyBool Name="Mute" Value="false" />
        <BoundPropertyFloat Name="Volume" Value="1.9764707088470459" />
      </BoundProperties>
    </AudioClip>
    <VideoClip extentID="18" gapBefore="0" mediaItemID="10" inTime="0" outTime="0" speed="0.25" stabilizationMode="0">
      <Effects />
      <Transitions />
      <BoundProperties>
        <BoundPropertyBool Name="Mute" Value="false" />
        <BoundPropertyInt Name="rotateStepNinety" Value="0" />
        <BoundPropertyFloat Name="Volume" Value="1" />
      </BoundProperties>
    </VideoClip>
    <AudioClip extentID="35" gapBefore="0.68005337499999996" mediaItemID="20" inTime="1.2333333333333343" outTime="1.9666666666666686" speed="1">
      <Effects />
      <Transitions />
      <BoundProperties>
        <BoundPropertyBool Name="Mute" Value="false" />
        <BoundPropertyFloat Name="Volume" Value="1" />
      </BoundProperties>
    </AudioClip>
    <VideoClip extentID="19" gapBefore="0" mediaItemID="11" inTime="0" outTime="0" speed="0.25" stabilizationMode="0">
      <Effects />
      <Transitions />
      <BoundProperties>
        <BoundPropertyBool Name="Mute" Value="false" />
        <BoundPropertyInt Name="rotateStepNinety" Value="0" />
        <BoundPropertyFloat Name="Volume" Value="1" />
      </BoundProperties>
    </VideoClip>
    <VideoClip extentID="20" gapBefore="0" mediaItemID="12" inTime="0" outTime="0" speed="0.5" stabilizationMode="0">
      <Effects />
      <Transitions />
      <BoundProperties>
        <BoundPropertyBool Name="Mute" Value="false" />
        <BoundPropertyInt Name="rotateStepNinety" Value="0" />
        <BoundPropertyFloat Name="Volume" Value="1" />
      </BoundProperties>
    </VideoClip>
    <AudioClip extentID="21" gapBefore="0.056709125000001137" mediaItemID="19" inTime="0.20995754166666458" outTime="1.8532484166666663" speed="1">
      <Effects>
        <AudioEffect effectTemplateID="AudioFadeEffectTemplate">
          <BoundProperties>
            <BoundPropertyFloat Name="AudioFadeInDuration" Value="0" />
            <BoundPropertyFloat Name="AudioFadeOutDuration" Value="10" />
          </BoundProperties>
        </AudioEffect>
      </Effects>
      <Transitions />
      <BoundProperties>
        <BoundPropertyBool Name="Mute" Value="false" />
        <BoundPropertyFloat Name="Volume" Value="2" />
      </BoundProperties>
    </AudioClip>
    <VideoClip extentID="5" gapBefore="0" mediaItemID="1" inTime="0" outTime="0" speed="0.5" stabilizationMode="0">
      <Effects />
      <Transitions>
        <ShaderEffect effectTemplateID="CircleTransitionTemplate" duration="1.5">
          <BoundProperties />
        </ShaderEffect>
      </Transitions>
      <BoundProperties>
        <BoundPropertyBool Name="Mute" Value="false" />
        <BoundPropertyInt Name="rotateStepNinety" Value="0" />
        <BoundPropertyFloat Name="Volume" Value="1" />
      </BoundProperties>
    </VideoClip>
    <AudioClip extentID="22" gapBefore="0.049390374999997988" mediaItemID="14" inTime="1.1839429583333327" outTime="2.6012192499999998" speed="1">
      <Effects />
      <Transitions />
      <BoundProperties>
        <BoundPropertyBool Name="Mute" Value="false" />
        <BoundPropertyFloat Name="Volume" Value="2" />
      </BoundProperties>
    </AudioClip>
    <VideoClip extentID="23" gapBefore="0" mediaItemID="7" inTime="0" outTime="0" speed="0.25" stabilizationMode="0">
      <Effects />
      <Transitions />
      <BoundProperties>
        <BoundPropertyBool Name="Mute" Value="false" />
        <BoundPropertyInt Name="rotateStepNinety" Value="0" />
        <BoundPropertyFloat Name="Volume" Value="1" />
      </BoundProperties>
    </VideoClip>
    <VideoClip extentID="6" gapBefore="0" mediaItemID="2" inTime="0" outTime="0" speed="0.5" stabilizationMode="0">
      <Effects />
      <Transitions />
      <BoundProperties>
        <BoundPropertyBool Name="Mute" Value="false" />
        <BoundPropertyInt Name="rotateStepNinety" Value="0" />
        <BoundPropertyFloat Name="Volume" Value="1" />
      </BoundProperties>
    </VideoClip>
    <AudioClip extentID="24" gapBefore="0" mediaItemID="13" inTime="0" outTime="20.466666666666665" speed="1">
      <Effects>
        <AudioEffect effectTemplateID="AudioFadeEffectTemplate">
          <BoundProperties>
            <BoundPropertyFloat Name="AudioFadeInDuration" Value="10" />
            <BoundPropertyFloat Name="AudioFadeOutDuration" Value="10" />
          </BoundProperties>
        </AudioEffect>
      </Effects>
      <Transitions />
      <BoundProperties>
        <BoundPropertyBool Name="Mute" Value="false" />
        <BoundPropertyFloat Name="Volume" Value="2" />
      </BoundProperties>
    </AudioClip>
    <TitleClip extentID="7" gapBefore="0" duration="6">
      <Effects />
      <Transitions />
      <BoundProperties>
        <BoundPropertyFloatSet Name="diffuseColor">
          <BoundPropertyFloatElement Value="0.21568627655506134" />
          <BoundPropertyFloatElement Value="0.37647059559822083" />
          <BoundPropertyFloatElement Value="0.56862747669219971" />
        </BoundPropertyFloatSet>
        <BoundPropertyFloat Name="transparency" Value="0" />
      </BoundProperties>
    </TitleClip>
    <VideoClip extentID="8" gapBefore="0" mediaItemID="3" inTime="0" outTime="0" speed="0.80000000000000004" stabilizationMode="0">
      <Effects />
      <Transitions />
      <BoundProperties>
        <BoundPropertyBool Name="Mute" Value="false" />
        <BoundPropertyInt Name="rotateStepNinety" Value="0" />
        <BoundPropertyFloat Name="Volume" Value="1" />
      </BoundProperties>
    </VideoClip>
    <AudioClip extentID="25" gapBefore="2.9198938958333329" mediaItemID="14" inTime="3.4345525833333319" outTime="4.4012192500000005" speed="1">
      <Effects />
      <Transitions />
      <BoundProperties>
        <BoundPropertyBool Name="Mute" Value="false" />
        <BoundPropertyFloat Name="Volume" Value="2" />
      </BoundProperties>
    </AudioClip>
    <TitleClip extentID="9" gapBefore="0" duration="4">
      <Effects>
        <TextEffect effectTemplateID="TextEffectFadeZoomTemplate" TextScriptId="9">
          <BoundProperties>
            <BoundPropertyBool Name="automatic" Value="false" />
            <BoundPropertyFloatSet Name="color">
              <BoundPropertyFloatElement Value="1" />
              <BoundPropertyFloatElement Value="1" />
              <BoundPropertyFloatElement Value="1" />
            </BoundPropertyFloatSet>
            <BoundPropertyStringSet Name="family">
              <BoundPropertyStringElement Value="Qarmic sans" />
            </BoundPropertyStringSet>
            <BoundPropertyBool Name="horizontal" Value="true" />
            <BoundPropertyStringSet Name="justify">
              <BoundPropertyStringElement Value="MIDDLE" />
            </BoundPropertyStringSet>
            <BoundPropertyBool Name="leftToRight" Value="true" />
            <BoundPropertyFloatSet Name="length" />
            <BoundPropertyFloat Name="maxExtent" Value="0" />
            <BoundPropertyFloatSet Name="outlineColor">
              <BoundPropertyFloatElement Value="0" />
              <BoundPropertyFloatElement Value="0" />
              <BoundPropertyFloatElement Value="0" />
            </BoundPropertyFloatSet>
            <BoundPropertyInt Name="outlineSizeIndex" Value="3" />
            <BoundPropertyFloatSet Name="position">
              <BoundPropertyFloatElement Value="-0.0076961517333984375" />
              <BoundPropertyFloatElement Value="0.96923065185546875" />
              <BoundPropertyFloatElement Value="0.02500000037252903" />
            </BoundPropertyFloatSet>
            <BoundPropertyFloat Name="size" Value="1.3333333730697632" />
            <BoundPropertyStringSet Name="string">
              <BoundPropertyStringElement Value="Party Island" />
            </BoundPropertyStringSet>
            <BoundPropertyString Name="style" Value="Bold" />
            <BoundPropertyFloat Name="transparency" Value="0" />
          </BoundProperties>
        </TextEffect>
      </Effects>
      <Transitions />
      <BoundProperties>
        <BoundPropertyFloatSet Name="diffuseColor">
          <BoundPropertyFloatElement Value="0.75" />
          <BoundPropertyFloatElement Value="1" />
          <BoundPropertyFloatElement Value="0" />
        </BoundPropertyFloatSet>
        <BoundPropertyFloat Name="transparency" Value="1" />
      </BoundProperties>
    </TitleClip>
    <AudioClip extentID="26" gapBefore="-0.0096507291666654282" mediaItemID="16" inTime="0.73333333333333428" outTime="6.9564234999999996" speed="1">
      <Effects>
        <AudioEffect effectTemplateID="AudioFadeEffectTemplate">
          <BoundProperties>
            <BoundPropertyFloat Name="AudioFadeInDuration" Value="0" />
            <BoundPropertyFloat Name="AudioFadeOutDuration" Value="10" />
          </BoundProperties>
        </AudioEffect>
      </Effects>
      <Transitions />
      <BoundProperties>
        <BoundPropertyBool Name="Mute" Value="false" />
        <BoundPropertyFloat Name="Volume" Value="2" />
      </BoundProperties>
    </AudioClip>
    <VideoClip extentID="10" gapBefore="0" mediaItemID="4" inTime="0" outTime="0" speed="0.25" stabilizationMode="0">
      <Effects />
      <Transitions />
      <BoundProperties>
        <BoundPropertyBool Name="Mute" Value="false" />
        <BoundPropertyInt Name="rotateStepNinety" Value="0" />
        <BoundPropertyFloat Name="Volume" Value="1" />
      </BoundProperties>
    </VideoClip>
    <AudioClip extentID="27" gapBefore="0.058107333333332178" mediaItemID="15" inTime="0.3418926666666664" outTime="4.2837853333333271" speed="1">
      <Effects />
      <Transitions />
      <BoundProperties>
        <BoundPropertyBool Name="Mute" Value="false" />
        <BoundPropertyFloat Name="Volume" Value="1.9764707088470459" />
      </BoundProperties>
    </AudioClip>
    <AudioClip extentID="28" gapBefore="0.033333333333338544" mediaItemID="15" inTime="0.3418926666666664" outTime="3.2085593333333335" speed="1">
      <Effects>
        <AudioEffect effectTemplateID="AudioFadeEffectTemplate">
          <BoundProperties>
            <BoundPropertyFloat Name="AudioFadeInDuration" Value="0" />
            <BoundPropertyFloat Name="AudioFadeOutDuration" Value="10" />
          </BoundProperties>
        </AudioEffect>
      </Effects>
      <Transitions />
      <BoundProperties>
        <BoundPropertyBool Name="Mute" Value="false" />
        <BoundPropertyFloat Name="Volume" Value="1.9764707088470459" />
      </BoundProperties>
    </AudioClip>
    <VideoClip extentID="11" gapBefore="0" mediaItemID="5" inTime="0" outTime="0" speed="0.5" stabilizationMode="0">
      <Effects />
      <Transitions />
      <BoundProperties>
        <BoundPropertyBool Name="Mute" Value="false" />
        <BoundPropertyInt Name="rotateStepNinety" Value="0" />
        <BoundPropertyFloat Name="Volume" Value="1" />
      </BoundProperties>
    </VideoClip>
    <TitleClip extentID="29" gapBefore="0" duration="3">
      <Effects />
      <Transitions />
      <BoundProperties>
        <BoundPropertyFloatSet Name="diffuseColor">
          <BoundPropertyFloatElement Value="0.050980392843484879" />
          <BoundPropertyFloatElement Value="0.050980392843484879" />
          <BoundPropertyFloatElement Value="0.050980392843484879" />
        </BoundPropertyFloatSet>
        <BoundPropertyFloat Name="transparency" Value="0" />
      </BoundProperties>
    </TitleClip>
    <VideoClip extentID="12" gapBefore="0" mediaItemID="6" inTime="0" outTime="0" speed="0.125" stabilizationMode="0">
      <Effects />
      <Transitions />
      <BoundProperties>
        <BoundPropertyBool Name="Mute" Value="false" />
        <BoundPropertyInt Name="rotateStepNinety" Value="0" />
        <BoundPropertyFloat Name="Volume" Value="1" />
      </BoundProperties>
    </VideoClip>
    <TitleClip extentID="30" gapBefore="26.800000000000001" duration="2.9914406666666657">
      <Effects>
        <TextEffect effectTemplateID="TextEffectFadeZoomTemplate" TextScriptId="9">
          <BoundProperties>
            <BoundPropertyBool Name="automatic" Value="false" />
            <BoundPropertyFloatSet Name="color">
              <BoundPropertyFloatElement Value="1" />
              <BoundPropertyFloatElement Value="1" />
              <BoundPropertyFloatElement Value="1" />
            </BoundPropertyFloatSet>
            <BoundPropertyStringSet Name="family">
              <BoundPropertyStringElement Value="Segoe UI" />
            </BoundPropertyStringSet>
            <BoundPropertyBool Name="horizontal" Value="true" />
            <BoundPropertyStringSet Name="justify">
              <BoundPropertyStringElement Value="MIDDLE" />
            </BoundPropertyStringSet>
            <BoundPropertyBool Name="leftToRight" Value="true" />
            <BoundPropertyFloatSet Name="length" />
            <BoundPropertyFloat Name="maxExtent" Value="0" />
            <BoundPropertyFloatSet Name="outlineColor">
              <BoundPropertyFloatElement Value="1" />
              <BoundPropertyFloatElement Value="1" />
              <BoundPropertyFloatElement Value="1" />
            </BoundPropertyFloatSet>
            <BoundPropertyInt Name="outlineSizeIndex" Value="1" />
            <BoundPropertyFloatSet Name="position">
              <BoundPropertyFloatElement Value="-0.023087978363037109" />
              <BoundPropertyFloatElement Value="0.41538453102111816" />
              <BoundPropertyFloatElement Value="0.02500000037252903" />
            </BoundPropertyFloatSet>
            <BoundPropertyFloat Name="size" Value="0.80000001192092896" />
            <BoundPropertyStringSet Name="string">
              <BoundPropertyStringElement Value="R.I.P Bootchen" />
            </BoundPropertyStringSet>
            <BoundPropertyString Name="style" Value="Plain" />
            <BoundPropertyFloat Name="transparency" Value="0" />
          </BoundProperties>
        </TextEffect>
      </Effects>
      <Transitions />
      <BoundProperties>
        <BoundPropertyFloatSet Name="diffuseColor">
          <BoundPropertyFloatElement Value="0.75" />
          <BoundPropertyFloatElement Value="1" />
          <BoundPropertyFloatElement Value="0" />
        </BoundPropertyFloatSet>
        <BoundPropertyFloat Name="transparency" Value="1" />
      </BoundProperties>
    </TitleClip>
    <AudioClip extentID="13" gapBefore="1.2382799583333366" mediaItemID="21" inTime="0.5" outTime="1.5029999999999999" speed="1">
      <Effects />
      <Transitions />
      <BoundProperties>
        <BoundPropertyBool Name="Mute" Value="false" />
        <BoundPropertyFloat Name="Volume" Value="0.23529413342475891" />
      </BoundProperties>
    </AudioClip>
    <VideoClip extentID="14" gapBefore="0" mediaItemID="8" inTime="0" outTime="2.0937651666666666" speed="0.25" stabilizationMode="0">
      <Effects />
      <Transitions />
      <BoundProperties>
        <BoundPropertyBool Name="Mute" Value="false" />
        <BoundPropertyInt Name="rotateStepNinety" Value="0" />
        <BoundPropertyFloat Name="Volume" Value="1" />
      </BoundProperties>
    </VideoClip>
    <AudioClip extentID="31" gapBefore="33.799999999999997" mediaItemID="18" inTime="0.63333333333333286" outTime="2.0150000000000001" speed="1">
      <Effects />
      <Transitions />
      <BoundProperties>
        <BoundPropertyBool Name="Mute" Value="false" />
        <BoundPropertyFloat Name="Volume" Value="2" />
      </BoundProperties>
    </AudioClip>
    <VideoClip extentID="15" gapBefore="0" mediaItemID="9" inTime="0" outTime="0" speed="0.5" stabilizationMode="0">
      <Effects />
      <Transitions />
      <BoundProperties>
        <BoundPropertyBool Name="Mute" Value="false" />
        <BoundPropertyInt Name="rotateStepNinety" Value="0" />
        <BoundPropertyFloat Name="Volume" Value="1" />
      </BoundProperties>
    </VideoClip>
    <AudioClip extentID="32" gapBefore="1.593998505208333" mediaItemID="22" inTime="0.1666666666666643" outTime="0.40300149479165981" speed="1">
      <Effects />
      <Transitions />
      <BoundProperties>
        <BoundPropertyBool Name="Mute" Value="false" />
        <BoundPropertyFloat Name="Volume" Value="1" />
      </BoundProperties>
    </AudioClip>
    <TitleClip extentID="16" gapBefore="0" duration="7">
      <Effects />
      <Transitions />
      <BoundProperties>
        <BoundPropertyFloatSet Name="diffuseColor">
          <BoundPropertyFloatElement Value="0.21568627655506134" />
          <BoundPropertyFloatElement Value="0.37647059559822083" />
          <BoundPropertyFloatElement Value="0.56862747669219971" />
        </BoundPropertyFloatSet>
        <BoundPropertyFloat Name="transparency" Value="0" />
      </BoundProperties>
    </TitleClip>
    <AudioClip extentID="33" gapBefore="0.28038920833333236" mediaItemID="14" inTime="1.1839429583333327" outTime="2.6012192499999998" speed="1">
      <Effects />
      <Transitions />
      <BoundProperties>
        <BoundPropertyBool Name="Mute" Value="false" />
        <BoundPropertyFloat Name="Volume" Value="2" />
      </BoundProperties>
    </AudioClip>
    <ExtentSelector extentID="1" gapBefore="0" primaryTrack="true">
      <Effects />
      <Transitions />
      <BoundProperties />
      <ExtentRefs>
        <ExtentRef id="7" />
        <ExtentRef id="5" />
        <ExtentRef id="14" />
        <ExtentRef id="10" />
        <ExtentRef id="11" />
        <ExtentRef id="19" />
        <ExtentRef id="18" />
        <ExtentRef id="29" />
        <ExtentRef id="15" />
        <ExtentRef id="12" />
        <ExtentRef id="23" />
        <ExtentRef id="8" />
        <ExtentRef id="20" />
        <ExtentRef id="6" />
        <ExtentRef id="16" />
      </ExtentRefs>
    </ExtentSelector>
    <ExtentSelector extentID="2" gapBefore="0" primaryTrack="false">
      <Effects />
      <Transitions />
      <BoundProperties />
      <ExtentRefs>
        <ExtentRef id="24" />
        <ExtentRef id="21" />
        <ExtentRef id="22" />
        <ExtentRef id="25" />
        <ExtentRef id="26" />
        <ExtentRef id="27" />
        <ExtentRef id="28" />
        <ExtentRef id="33" />
        <ExtentRef id="34" />
      </ExtentRefs>
    </ExtentSelector>
    <ExtentSelector extentID="3" gapBefore="0" primaryTrack="false">
      <Effects />
      <Transitions />
      <BoundProperties />
      <ExtentRefs>
        <ExtentRef id="31" />
        <ExtentRef id="35" />
        <ExtentRef id="13" />
        <ExtentRef id="32" />
      </ExtentRefs>
    </ExtentSelector>
    <ExtentSelector extentID="4" gapBefore="0" primaryTrack="false">
      <Effects />
      <Transitions />
      <BoundProperties />
      <ExtentRefs>
        <ExtentRef id="9" />
        <ExtentRef id="30" />
        <ExtentRef id="17" />
      </ExtentRefs>
    </ExtentSelector>
  </Extents>
  <BoundPlaceholders>
    <BoundPlaceholder placeholderID="SingleExtentView" extentID="0" />
    <BoundPlaceholder placeholderID="Main" extentID="1" />
    <BoundPlaceholder placeholderID="SoundTrack" extentID="2" />
    <BoundPlaceholder placeholderID="Narration" extentID="3" />
    <BoundPlaceholder placeholderID="Text" extentID="4" />
  </BoundPlaceholders>
  <BoundProperties>
    <BoundPropertyFloatSet Name="AspectRatio">
      <BoundPropertyFloatElement Value="1.7777776718139648" />
    </BoundPropertyFloatSet>
    <BoundPropertyFloat Name="DuckedNarrationAndSoundTrackMix" Value="0.5" />
    <BoundPropertyFloat Name="DuckedVideoAndNarrationMix" Value="0.5" />
    <BoundPropertyFloat Name="DuckedVideoAndSoundTrackMix" Value="0.5" />
    <BoundPropertyFloat Name="SoundTrackMix" Value="0.5" />
  </BoundProperties>
  <ThemeOperationLog themeID="0">
    <MonolithicThemeOperations />
  </ThemeOperationLog>
  <AudioDuckingProperties emphasisPlaceholderID="Narration" />
</Project>